<?xml version="1.0" encoding="UTF-8" standalone="no"?>
<!-- Created with Inkscape (http://www.inkscape.org/) -->

<svg
   xmlns:dc="http://purl.org/dc/elements/1.1/"
   xmlns:cc="http://creativecommons.org/ns#"
   xmlns:rdf="http://www.w3.org/1999/02/22-rdf-syntax-ns#"
   xmlns:svg="http://www.w3.org/2000/svg"
   xmlns="http://www.w3.org/2000/svg"
   xmlns:sodipodi="http://sodipodi.sourceforge.net/DTD/sodipodi-0.dtd"
   xmlns:inkscape="http://www.inkscape.org/namespaces/inkscape"
   width="210mm"
   height="297mm"
   viewBox="0 0 210 297"
   version="1.1"
   id="svg8"
   inkscape:version="0.92.5 (2060ec1f9f, 2020-04-08)"
   sodipodi:docname="gigachad.svg">
  <defs
     id="defs2" />
  <sodipodi:namedview
     id="base"
     pagecolor="#ffffff"
     bordercolor="#666666"
     borderopacity="1.0"
     inkscape:pageopacity="0.0"
     inkscape:pageshadow="2"
     inkscape:zoom="0.045485064"
     inkscape:cx="1799.3832"
     inkscape:cy="-971.33849"
     inkscape:document-units="mm"
     inkscape:current-layer="layer1"
     showgrid="false"
     showborder="false"
     inkscape:window-width="2560"
     inkscape:window-height="1361"
     inkscape:window-x="-9"
     inkscape:window-y="-9"
     inkscape:window-maximized="1"
     inkscape:snap-global="false" />
  <metadata
     id="metadata5">
    <rdf:RDF>
      <cc:Work
         rdf:about="">
        <dc:format>image/svg+xml</dc:format>
        <dc:type
           rdf:resource="http://purl.org/dc/dcmitype/StillImage" />
        <dc:title></dc:title>
      </cc:Work>
    </rdf:RDF>
  </metadata>
  <g
     inkscape:label="Layer 1"
     inkscape:groupmode="layer"
     id="layer1">
    <path
       style="fill:none;stroke:#3ca656;stroke-width:1.63668084;stroke-opacity:1"
       d="m -532.61137,504.23544 v 91.7579 H 581.71102 V 156.21636 C 509.14718,114.55569 444.14379,96.521476 380.28292,82.057605 308.58477,72.942718 294.85204,32.615772 278.86712,-6.4985405 274.13157,-52.032481 265.38494,-93.555273 257.53184,-135.97166 c 3.3277,-23.17677 6.40998,-46.28346 17.24357,-71.6048 19.95492,-25.81672 15.55558,-51.63336 16.36686,-77.45008 -2.30054,-15.44712 0.11824,-33.00557 -15.96501,-39.74798 -18.32892,-29.3614 -29.84132,-13.56322 -41.75725,-0.43858 -39.90061,42.62529 -13.97924,70.40837 -18.55881,105.06911 -3.42982,21.90611 7.6153,27.81361 13.73644,39.16344 l 41.50153,-21.48149 10.81381,-42.23222 c -0.51217,-13.60215 6.41433,-27.20423 -11.40263,-40.80636 -1.11036,-11.70072 11.81615,-22.06328 -11.8324,-34.74397 -8.37505,-1.25418 -17.48194,-4.3047 -20.02012,8.76792 3.25812,9.49279 11.67746,17.39748 22.06597,24.69633 -10.13435,5.58758 -19.5754,6.0908 -28.0574,-0.43857 -4.1706,15.76446 -5.78075,31.13495 4.23787,44.71648 -8.4379,8.7618 -11.97687,17.36031 -3.94561,25.57312 9.39665,5.26038 16.39803,-2.65339 22.50433,-15.49002 7.89117,0.96122 15.78231,2.00343 23.67348,-9.937 -1.38162,8.23211 -2.1941,31.66218 -8.0373,39.89429 l -41.50153,21.48149 -10.88468,-11.64247 c 12.98341,44.21446 10.25839,81.69662 8.2543,119.487827 -27.88731,31.439949 -58.44347,44.198183 -88.41003,61.083212 C 117.66128,1.2515884 103.57429,14.158218 86.557117,21.558458 59.099421,60.466167 27.433906,68.867377 -4.337086,76.504164 -113.14536,118.5378 -124.93967,68.17056 -153.97651,34.125801 c -5.22223,-27.2200753 -7.65601,-54.533243 3.48346,-82.29874 -20.28561,-33.496597 -26.55669,-71.477841 -27.44916,-111.180251 l 41.50158,-31.56457 79.203639,-11.69058 66.9285632,-13.4442 c 45.6069908,12.25083 60.3602148,35.69041 35.0717748,73.65066 15.093735,-10.45885 33.292594,-16.08534 41.785116,-41.54809 -14.951596,-11.96165 -21.66958,-26.07122 -23.972833,-41.33246 56.0929,2.92419 103.87572,-8.0017 113.6642,-82.2515 1.18374,-60.44198 -39.41946,-86.47123 -76.677752,-115.2552 26.791582,-46.58698 23.756362,-77.38587 -42.560225,-89.83317 -64.3960005,0.68891 -118.27061,10.88235 -174.222273,28.18553 -39.82081,30.64272 -46.61439,73.76231 -52.07888,117.3841 l -9.09311,21.4929 c 7.32277,-50.66928 2.67511,-106.1777 44.22569,-143.01022 12.25416,-55.98264 60.768482,-84.27052 143.0101995,-86.79812 78.1799405,-20.60218 135.5063605,-11.0826 174.0095605,25.62612 53.5326,18.46415 77.10089,62.50764 85.55816,119.45069 16.43978,41.82106 11.41633,72.34567 7.53327,103.47057 -31.1401,-44.05462 -69.08286,-85.58972 -120.41292,-122.16652 34.30292,24.8102 74.39554,33.94007 100.69501,80.42641 -13.70681,-49.79899 -64.06786,-61.81599 -99.52601,-89.19436 35.46321,12.05477 72.43375,19.90495 101.12359,50.85401 -23.16627,-37.70113 -63.30869,-45.91729 -99.95453,-60.20648 28.75132,3.47338 60.92715,2.29919 85.01358,12.10352 2.59724,-28.42035 -52.22692,-25.95489 -96.70412,-29.05483 9.67253,-12.88196 15.80855,-33.40055 44.40191,-40.22781 -35.50936,-12.99065 -63.62716,6.35681 -93.502367,18.01571 7.170327,-14.53331 13.123597,-29.61429 27.472877,-40.91704 -19.79446,-4.31955 -35.755882,19.28726 -53.192173,32.14908 9.603625,-12.71676 16.962629,-26.27522 29.226533,-37.99438 -24.802249,-9.37326 -33.536955,20.80428 -49.685002,32.73363 6.420252,-12.16829 1.909448,-25.95596 21.043051,-36.24082 -22.749413,-10.8277 -35.500524,16.67174 -52.607625,27.47289 2.75364,-10.37512 -0.970437,-21.928 12.275147,-30.39549 -46.919429,2.39027 -46.873947,24.78409 -68.389846,37.99436 3.068314,-15.27666 9.795958,-30.20478 23.965633,-44.42419 -34.575289,13.84607 -40.32512,33.76065 -56.699286,51.43855 -5.951438,-12.46502 -0.0786,-24.27315 2.922637,-36.2408 -24.80555,15.42156 -35.139189,36.17491 -50.853989,54.94572 -2.94183,-11.53977 3.70943,-22.24536 12.85964,-32.73363 -8.5541,12.57637 -9.77092,26.1311 -10.52157,39.74797 56.452651,-14.00145 113.8415526,-21.44965 171.851495,-24.55023 62.883675,16.06229 72.280335,47.08281 43.255155,88.84842 36.83634,28.97393 71.2539,55.94982 76.28104,117.49029 -21.99884,83.8167 -68.38341,80.75358 -113.086667,82.07773 0.464534,17.82726 17.490073,28.07931 25.991816,40.38106 -11.88913,21.35138 -27.923307,33.37628 -44.131928,45.00871 L 20.213148,-169.2902 c -55.682515,-7.13391 -110.684601,-9.6408 -158.699658,35.36403 4.55865,9.79539 13.86852,9.72265 25.57318,4.67621 l 1.75357,15.78226 c -18.87787,-2.79025 -16.58847,11.48986 -19.43562,21.627583 11.47662,15.344879 25.43097,2.195057 39.017339,-6.722076 41.694638,0.415069 76.964731,-18.978407 112.201306,-38.475437 0.0059,-7.6229 -3.941901,-10.62524 -10.539778,-10.53979 l -90.931383,32.44599 -29.346004,3.30653 -2.27331,-18.18624 30.792709,-5.37319 1.033283,18.59957 -0.206595,-18.59957 23.766132,-6.40652 0.8267,15.29299 -0.206596,-15.08638 20.459559,-5.57984 v 13.01973 l 0.826617,-12.81308 16.94634,-2.27329 1.653234,8.67984 -0.826617,-9.09318 14.6730276,-2.27326 v 7.23315 l 13.5780224,-3.55689 c 11.442939,2.02507 8.113211,8.66654 11.702734,13.14581 -35.068062,16.47526 -69.212184,35.722148 -109.01463,37.99434 -18.90065,10.738217 -36.61336,18.387733 -47.34685,7.891143 5.93956,-8.965925 2.30307,-27.507873 20.45849,-24.257933 l -0.87677,-13.44412 c -14.05278,4.18063 -21.30788,-0.24929 -27.18057,-6.42987 30.43745,6.307 52.677822,-5.91785 79.110401,-11.97486 27.445343,-6.28911 72.92079,-7.21708 82.219579,-25.7272 l 21.335298,24.25792 c 29.93803,-37.53055 12.009454,-57.11114 -32.7336522,-66.63628 l -143.5017958,20.4585 c -1.03023,-5.06451 -5.54191,-11.60601 1.84587,-13.09923 6.29418,-1.0771 10.7123,3.09906 14.25971,9.71313 -6.19988,3.32597 -12.39972,3.7682 -18.59959,1.86 -16.69944,-17.99215 -4.5014,-32.27948 -1.44662,-47.73899 l 27.90628,-67.93298 c -33.79951,2.76411 -69.70725,4.12277 -73.06606,27.18065 0.3792,10.0546 6.26171,15.21719 11.39829,21.04298 12.35495,-15.91484 29.62845,-21.99258 49.68494,-22.50435 l -1.16902,-10.22926 h -13.29805 c 1.9775,2.87395 3.48922,5.74783 0.58458,8.62182 -7.51411,6.60805 -15.62918,7.8075 -23.67342,9.64468 -3.96776,-3.19776 -6.03905,-6.6665 -2.33807,-10.95987 8.03725,-7.42671 16.07449,-8.04789 24.11173,-9.06023 l 15.1978,0.87679 1.60745,10.95996 11.8367,-29.37259 -9.06023,-7.01438 -77.74228,16.36679 c -2.83894,-7.83299 -9.88758,-14.91432 -2.63043,-24.55017 4.32308,-7.12196 9.50795,-13.33414 20.75078,-13.1519 16.77091,-6.9982 31.7767,-9.29903 49.2466,-13.15189 18.44013,11.78799 9.42388,16.85392 13.29804,28.64192 17.448222,-7.1697 34.912264,-13.95932 52.899856,-8.18345 l -15.490047,-8.18334 6.429825,-28.05742 c 90.140426,-62.19126 114.515457,-13.24411 158.115064,3.2149 -47.136699,0.13558 -101.692144,-11.38727 -133.857105,12.27514 l -14.613233,33.61037 21.919861,21.62757 c 2.052417,-14.02853 -0.99357,-29.54023 15.197712,-39.45567 l 4.968504,3.79945 -1.461292,13.73644 55.23792,-13.73644 c -15.90988,-2.9777 -30.6924645,-11.7799 -49.684924,1.169 -2.835243,3.27536 -4.182396,6.25313 1.169066,7.89114 7.4040216,0.73934 14.80809064,1.42955 22.2120774,-3.21485 3.7111826,-2.82521 -0.064417,-5.6505 -2.0458345,-8.47571 22.0948381,-4.69793 32.1003701,0.59074 41.7938401,6.13756 -22.308975,7.67829 -42.9563112,19.34419 -70.435775,14.61323 l -15.782299,19.2895 -23.088856,-21.04307 c 6.741012,19.09462 7.646572,38.18923 6.722077,57.28383 9.414929,9.90577 15.179026,21.63693 15.782287,35.94851 -3.164254,8.33757 -6.691145,16.3598 -16.074563,19.28942 -11.621308,-8.8842 -24.462875,-0.27711 -36.825285,1.46135 -9.218886,1.08242 -8.964646,-1.38755 -7.306576,-4.38398 16.894863,-6.51763 36.460125,-18.75744 42.378291,-1.75357 l 4.091715,3.50721 c -23.84134,13.01285 -54.252966,10.69502 -81.384606,16.03053 l -40.71244,30.58595 c -12.33773,-23.09956 -24.14356,-46.45886 -3.71993,-85.55815 -8.22779,-12.46389 -11.12953,-25.76863 -8.88647,-39.88575 -8.43677,-0.15036 -13.40411,-2.21923 -9.09317,-17.77299 3.24603,5.34853 -9.41219,20.09177 7.02654,18.59959 -0.24064,15.03726 3.97961,28.21605 10.33309,40.50583 -16.43082,29.22479 -12.96043,56.55418 3.3066,82.66486 1.90104,39.47251 5.97834,78.450424 24.79943,114.07753 -6.08944,28.277004 -5.06077,55.604983 -2.99352,82.794463 27.55715,30.137623 41.97953,71.749037 112.52451,55.255824 l 10.719803,110.411163 c 3.453539,47.17618 3.519894,93.77178 -30.980047,134.44163 29.771633,-7.36385 56.2436285,-3.17873 83.003125,0 28.950726,13.88627 46.41894,42.12556 63.129067,71.31258 -47.456548,47.72618 -32.600706,94.09777 -9.352446,140.28693 -18.14183,11.09178 -23.717889,30.56071 -28.057356,50.85409 7.042626,-17.21287 10.401501,-35.89924 24.550225,-50.2696 -14.292674,-46.85729 -30.572415,-93.8849 8.183359,-136.1952 14.496727,-34.39313 33.68676,-63.15436 63.71363,-78.91142 94.57546,-60.36444 244.17109,-74.66539 405.07858,-79.49595 l 33.31814,11.69065 1.22679,333.02422 -935.0117,0.15706 c 9.90762,-70.09379 49.2914,-127.64457 132.39579,-166.59074 33.98232,-22.55763 66.66949,-49.00083 92.94007,-94.69371 23.15109,-7.57813 44.310208,-9.57891 61.960054,-1.75356 40.420234,-42.46244 34.399096,-89.45577 30.980094,-136.19523 -83.999948,36.54074 -141.422288,82.51224 -177.112308,136.19523 -41.41972,-0.48129 -74.63875,17.78243 -105.21519,42.08604 -87.23488,10.70245 -163.74108,43.7953 -215.25921,129.03706 z"
       id="path3724"
       inkscape:connector-curvature="0"
       sodipodi:nodetypes="ccccccccccccccccccccccccccccccccccccccccccccccccccccccccccccccccccccccccccccccccccccccccccccccccccccccccccccccccscccccccccccccccccccccccccccccccccccccccccccccccccccccccccccccccccccccccccccccccccccc" />
  </g>
</svg>
